<?xml version="1.0" encoding="iso-8859-1"?>
<!-- Generator: Adobe Illustrator 21.0.2, SVG Export Plug-In . SVG Version: 6.00 Build 0)  -->
<svg version="1.1" id="Calque_1" xmlns="http://www.w3.org/2000/svg" xmlns:xlink="http://www.w3.org/1999/xlink" x="0px" y="0px"
	 viewBox="0 0 560 560" style="enable-background:new 0 0 560 560;" xml:space="preserve">
<g id="Vector_Graphics">
	<path style="fill:#2AA9E0;" d="M280,0C125.37,0,0,125.37,0,280c0,154.665,125.37,280,280,280s280-125.335,280-280
		C560,125.37,434.63,0,280,0z M391.335,222.915c0.122,2.467,0.175,4.918,0.175,7.42c0,75.915-57.785,163.45-163.45,163.45
		c-32.445,0-62.633-9.502-88.06-25.812c4.515,0.507,9.065,0.788,13.702,0.788c26.932,0,51.678-9.153,71.33-24.57
		c-25.13-0.473-46.34-17.08-53.638-39.882c3.5,0.648,7.087,1.033,10.798,1.033c5.25,0,10.325-0.717,15.12-2.012
		c-26.25-5.302-46.077-28.508-46.077-56.333c0-0.245,0-0.473,0-0.718c7.753,4.305,16.608,6.878,26.022,7.175
		c-15.417-10.29-25.55-27.895-25.55-47.81c0-10.535,2.835-20.405,7.77-28.875c28.315,34.755,70.665,57.628,118.405,60.025
		c-0.98-4.2-1.487-8.575-1.487-13.09c0-31.71,25.725-57.417,57.453-57.417c16.503,0,31.448,6.965,41.93,18.112
		c13.072-2.555,25.375-7.35,36.488-13.947c-4.305,13.423-13.405,24.675-25.253,31.78c11.62-1.365,22.698-4.48,32.988-9.03
		C412.3,204.697,402.57,214.812,391.335,222.915z"/>
</g>
</svg>
