<?xml version="1.0" encoding="iso-8859-1"?>
<!-- Generator: Adobe Illustrator 21.0.2, SVG Export Plug-In . SVG Version: 6.00 Build 0)  -->
<svg version="1.1" id="Calque_1" xmlns="http://www.w3.org/2000/svg" xmlns:xlink="http://www.w3.org/1999/xlink" x="0px" y="0px"
	 viewBox="0 0 560 560" style="enable-background:new 0 0 560 560;" xml:space="preserve">
<g id="Vector_Graphics_2_">
	<path style="fill:#36609F;" d="M280,0C125.37,0,0,125.37,0,280c0,154.665,125.37,280,280,280c154.647,0,280-125.335,280-280
		C560,125.37,434.647,0,280,0z M339.99,280.105h-39.235c0,62.685,0,139.895,0,139.895H242.62c0,0,0-76.422,0-139.895h-27.65v-49.42
		h27.65v-31.99c0-22.908,10.867-58.695,58.66-58.695l43.068,0.175v47.985c0,0-26.18,0-31.255,0c-5.092,0-12.338,2.537-12.338,13.475
		v29.05h44.327L339.99,280.105z"/>
</g>
</svg>
