<?xml version="1.0" encoding="iso-8859-1"?>
<!-- Generator: Adobe Illustrator 21.0.2, SVG Export Plug-In . SVG Version: 6.00 Build 0)  -->
<svg version="1.1" id="Calque_1" xmlns="http://www.w3.org/2000/svg" xmlns:xlink="http://www.w3.org/1999/xlink" x="0px" y="0px"
	 viewBox="0 0 559.021 559.091" style="enable-background:new 0 0 559.021 559.091;" xml:space="preserve">
<g id="Vector_Graphics_1_">
	<g>
		<path style="fill:#DB5442;" d="M279.476,0C125.128,0,0,125.128,0,279.476c0,154.418,125.128,279.476,279.476,279.476
			s279.476-125.128,279.476-279.476C559.021,125.128,433.893,0,279.476,0z"/>
		<path style="fill:#DB5442;" d="M279.476,0C125.128,0,0,125.128,0,279.476c0,154.418,125.128,279.476,279.476,279.476
			s279.476-125.128,279.476-279.476C559.021,125.128,433.893,0,279.476,0z"/>
		<g>
			<path style="fill:#DB5442;" d="M238.093,279.476c-6.291-48.234-37.818-87.869-74.518-88.988
				c-36.769-1.049-61.446,35.861-55.014,84.094c6.291,48.304,41.313,82.067,78.083,83.186
				C223.343,358.817,244.454,327.779,238.093,279.476z"/>
			<path style="fill:#DB5442;" d="M559.021,279.476C559.021,125.128,433.893,0,279.476,0C125.128,0,0,125.128,0,279.476
				c0,72.42,27.752,138.13,72.91,187.762c22.998-16.288,53.267-26.913,88.149-26.913c8.668,0,16.567-0.21,24.746-0.21
				c-10.835-10.486-19.573-19.573-19.573-35.511c0-9.507,3.006-18.525,7.2-26.633c-4.264,0.28-8.668,0.559-13.212,0.559
				c-65.081,0-103.038-45.787-103.038-103.108c0-56.133,57.671-107.233,126.876-107.233c35.651,0,136.383,0,136.383,0
				l-30.478,32.016h-35.791c25.305,14.47,38.727,44.249,38.727,77.104c0,30.198-16.707,54.455-40.265,72.91
				c-23.068,18.035-27.402,25.515-27.402,40.824c0,13.072,27.542,32.505,40.195,41.942c44.039,33.065,52.987,53.826,52.987,95.139
				c0,9.647-1.957,19.293-5.732,28.661C451.369,540.427,559.021,422.639,559.021,279.476z M425.854,331.904h-31.457V269.06h-62.913
				v-31.457h62.913V174.62h31.457v62.913h62.914v31.457h-62.914V331.904z"/>
			<polygon style="fill:#FFFFFF;" points="488.768,237.533 425.854,237.533 425.854,174.55 394.398,174.55 394.398,237.533 
				331.484,237.533 331.484,268.99 394.398,268.99 394.398,331.904 425.854,331.904 425.854,268.99 488.768,268.99 			"/>
			<path style="fill:#FFFFFF;" d="M265.425,433.124c-12.653-9.507-40.195-28.94-40.195-41.942c0-15.309,4.334-22.789,27.402-40.824
				c23.558-18.385,40.265-42.711,40.265-72.91c0-32.855-13.422-62.634-38.727-77.104h35.791l30.478-32.016c0,0-100.731,0-136.382,0
				c-69.205,0-126.876,51.1-126.876,107.233c0,57.321,37.888,103.108,103.038,103.108c4.544,0,8.948-0.28,13.212-0.559
				c-4.264,8.109-7.2,17.126-7.2,26.633c0,15.938,8.738,25.026,19.573,35.511c-8.179,0-16.078,0.21-24.746,0.21
				c-34.882,0-65.15,10.555-88.149,26.913c7.2,7.899,14.75,15.379,22.789,22.369c18.455-20.062,49.282-33.554,83.325-33.134
				c12.792,0.07,24.676,2.167,35.511,5.662c29.779,20.692,53.756,33.624,59.768,57.181c1.118,4.753,1.748,9.647,1.748,14.68
				c0,8.668-1.258,16.917-3.775,24.606c2.447,0.07,4.823,0.349,7.27,0.349c11.255,0,22.229-0.839,33.134-2.097
				c3.775-9.297,5.732-18.944,5.732-28.661C318.342,486.95,309.464,466.119,265.425,433.124z M186.573,357.768
				c-36.769-1.118-71.721-34.882-78.083-83.186c-6.361-48.234,18.315-85.213,55.014-84.094
				c36.769,1.118,68.226,40.754,74.518,88.988C244.454,327.779,223.343,358.817,186.573,357.768z"/>
		</g>
	</g>
</g>
</svg>
